/* XPM */
static char *_b0494c22fe54e59d1b065a377b654dejhdmxuUIhIkzKuPh[] = {
/* columns rows colors chars-per-pixel */
"64 64 226 2 ",
"   c None",
".  c #3D0104",
"X  c #3B033C",
"o  c #380439",
"O  c #38052D",
"+  c #393938",
"@  c #31372B",
"#  c #460002",
"$  c #590101",
"%  c #650202",
"&  c #6C0101",
"*  c #6A040A",
"=  c #730101",
"-  c #7B0002",
";  c #72000B",
":  c #790309",
">  c #44023C",
",  c #4C023C",
"<  c #470439",
"1  c #595802",
"2  c #6E4E1D",
"3  c #47483D",
"4  c #734A29",
"5  c #6E4E30",
"6  c #3E0244",
"7  c #3A0546",
"8  c #440244",
"9  c #4B0244",
"0  c #45024B",
"q  c #4C024C",
"w  c #430A4B",
"e  c #4C094B",
"r  c #460944",
"t  c #520145",
"y  c #53014C",
"u  c #5B014E",
"i  c #530748",
"p  c #450253",
"a  c #4C0253",
"s  c #4B0954",
"d  c #4D015A",
"f  c #490759",
"g  c #530153",
"h  c #5A0154",
"j  c #530A53",
"k  c #54015B",
"l  c #5B015B",
"z  c #570A5B",
"x  c #63015D",
"c  c #630256",
"v  c #62004E",
"b  c #4D0164",
"n  c #530163",
"m  c #5B0163",
"M  c #590367",
"N  c #630164",
"B  c #6B0264",
"V  c #650169",
"C  c #6B016C",
"Z  c #680C6F",
"A  c #78016C",
"S  c #6A0273",
"D  c #690177",
"F  c #760376",
"G  c #563E54",
"H  c #474948",
"J  c #4C574A",
"K  c #53564C",
"L  c #4D4454",
"P  c #554B57",
"I  c #555657",
"U  c #4E504F",
"Y  c #645457",
"T  c #5A6657",
"R  c #63655E",
"E  c #5B5464",
"W  c #655E67",
"Q  c #6F5D71",
"!  c #5E6865",
"~  c #586575",
"^  c #676767",
"/  c #736C6C",
"(  c #6B736C",
")  c #697466",
"_  c #77776A",
"`  c #6C6C72",
"'  c #686675",
"]  c #736C73",
"[  c #766B79",
"{  c #6B7576",
"}  c #7B7B73",
"|  c #737C7B",
" . c #7C7B7D",
".. c #767774",
"X. c #830101",
"o. c #8A0100",
"O. c #870009",
"+. c #960403",
"@. c #850018",
"#. c #A80102",
"$. c #B20000",
"%. c #EC030F",
"&. c #FE2318",
"*. c #804C1D",
"=. c #B34F02",
"-. c #B94C03",
";. c #AB5202",
":. c #B35303",
">. c #BA5402",
",. c #B45808",
"<. c #B05713",
"1. c #89670D",
"2. c #C15808",
"3. c #D16404",
"4. c #F66C01",
"5. c #820179",
"6. c #827B7C",
"7. c #857879",
"8. c #83786F",
"9. c #A76C44",
"0. c #748C00",
"q. c #798279",
"w. c #6E8170",
"e. c #9E9800",
"r. c #F28D21",
"t. c #CAC705",
"y. c #FFF601",
"u. c #E1D600",
"i. c #848478",
"p. c #DD8754",
"a. c #760482",
"s. c #7C7C84",
"d. c #7B7887",
"f. c #870489",
"g. c #9C019B",
"h. c #950288",
"j. c #A10098",
"k. c #9B02A5",
"l. c #A006A4",
"z. c #857885",
"x. c #7A8485",
"c. c #8B8B8C",
"v. c #898986",
"b. c #94898A",
"n. c #899887",
"m. c #94968D",
"M. c #8C8A94",
"N. c #928D94",
"B. c #958894",
"V. c #8E9796",
"C. c #939594",
"Z. c #9B9595",
"A. c #949A94",
"S. c #9A9A95",
"D. c #9B949B",
"F. c #949B9B",
"G. c #9A9A9A",
"H. c #94959A",
"J. c #A29998",
"K. c #A28895",
"L. c #96A197",
"P. c #8FA197",
"I. c #A6A69D",
"U. c #B1AF9B",
"Y. c #9898A3",
"T. c #9397A4",
"R. c #A698A5",
"E. c #9BA8A7",
"W. c #9EB4AF",
"Q. c #ABA4A4",
"!. c #ABACA5",
"~. c #ADACAC",
"^. c #A5A8A8",
"/. c #B4ADAB",
"(. c #BBAEAE",
"). c #B2A6A8",
"_. c #ACB5AC",
"`. c #ACBAAC",
"'. c #A8B8A7",
"]. c #B4B3AD",
"[. c #BAB3AC",
"{. c #B4BAAD",
"}. c #B7B7A6",
"|. c #AAABB5",
" X c #B5AEB3",
".X c #BBADB4",
"XX c #B5AEBC",
"oX c #BCADBA",
"OX c #B6A4B4",
"+X c #ADB5B3",
"@X c #ACBAB4",
"#X c #ADB4BB",
"$X c #ADBABB",
"%X c #A5B9B7",
"&X c #B4B4B3",
"*X c #BAB3B4",
"=X c #B2B9B4",
"-X c #B4B4BB",
";X c #BCB3BB",
":X c #B3BABB",
">X c #BBBBBB",
",X c #BABAB3",
"<X c #C4AEB8",
"1X c #C2B4BA",
"2X c #C3B9B7",
"3X c #C4B0AE",
"4X c #BAC4BA",
"5X c #AEC3B8",
"6X c #C5C4BA",
"7X c #BAACC2",
"8X c #ADB5C3",
"9X c #B5B3C3",
"0X c #BAB9C3",
"qX c #C6BBC4",
"wX c #C2ABC6",
"eX c #BBC2C3",
"rX c #B2C2C7",
"tX c #BBC1D1",
"yX c #C3C3C4",
"uX c #C7C5C7",
"iX c #D6CCCA",
"pX c #CAD5C9",
"aX c #D3CBD3",
"sX c #CAD4D5",
"dX c #D2D2D0",
"fX c #CECBE0",
/* pixels */
"                                                                                                                                ",
"                                                                                                                                ",
"                                                                                                                                ",
"  y.                                                                                                                        y.  ",
"u.t.0.&X1X3XqX!.+X]._.&X:X|.-X%X@X@X_.&X.X>X+X%X+X&X&X*X&X&X~.*X-X.X@X&X>X X X:X&X&X&X&X&X&X&X=X#X>X-X@X&X-X].:XW.{.-XXX4Xt.t.  ",
"9.e.1 [ ( x.7.x.s.} } z.d.v...| 7.| q.z.z... .6.q.z... ...z.| v. .6.6.7.x.| q...6. . . . . . . .} }  .z.z.s.w.q.z.q.] ) ) 1.p.1 ",
"      } x.7.[ F.Y.H.G.F.G.Z.Z.S.Z.J.G.F.F.G.S.F.F.V.G.D.L.H.G.C.F.C.G.A.A.F.C.J.H.G.G.G.G.G.H.G.P.V.S.J.G.V.L.K.S.} ` } i.      ",
"      F.d.&.#.. # K % = & = : % % = & & & = = = = & = - % = = & = = & = = & = & & = & & & = = & O.% #.#.%.%.8.. # . d.yX{       ",
"      !.z.#.qXT.{ # w.|.uXpX>XyX,X-X.X'.+X*X.X'.-X]._.{.-X/.>X].@X[.-X7X].@X&X*X`.*X3X_.@X<X{.XXeXeXeX2XeX..# d._ H.&.x./       ",
"      *XF.. S.4XG.8.B.n.Q.OXb.d.E.pX4X0X|.>X-X:X X;X#XXX,X&X+X-X*X_.-X@X_.+X1X%X_.9X>X9X=X|.+Xn.C ^ 2X2XE.^._.] ^.dX#.` 8.      ",
"      sXE.# A.I.6XC.q.z.S.S.J a [ OXiXpXuXqX+X=X&X&X&XwX_.>X!.-XoX{.].3X@XqX!.&X&X{.XX|.pXqXb.' V g Y.J.&XT.H.I.aX} . x.F.      ",
"      fXXXT ` J.*X0XT.w.d.B.w h h t s.^.uX6X4X2X4X4X X:Xe ] I a f k q -.3.4.}.7XXX}.6XqXi.T c l y w E.D.D.C._.pXuXW I v.|.      ",
"      [.aX# z.H.I.,X0XR.( ^ L q k s j a z.).@X X<X@X&X`.a a t k 0 q.q ,.,.3.r.}.,X!.M.Q V k e a q L L.A.T.U.tX2X~.s.# m.E.      ",
"      &XsX= n.C.V.R.>XW i ( ^ H 8 d 9 h k m t x.M.]..X:X] k g h l u a >.v.-X:Xc.R N V e n 0 g a L ( / y T Q.uXQ.v.x.# !.{.      ",
"      1XaX$.I.S.C.H.R C N L / ! 3 i q d 6 f.y c h ) v.*X=Xy 9 p q 0 g v.-Xv.^ V N i f.q g u 9 H ] K B S N ! ^.T.6.c.* Q.&X      ",
"      ].+X+.9XA.v.M.8 m A M k 3 ! H @ p 9 N 0 M l k n [.+Xg k a d g y $X-Xl N l m a B 0 p + H ^ H p C l F C m.N...V.& Q.].      ",
"      }.:XO.2X|.G.v.p t k D l N d H E @ 6 > p 8 e g E {.7Xq h q q g y 7X'.E 8 9 9 9 0 6 + L H 7 y d M A B C N.| b.c.& Q.%X      ",
"      !.-X* uX[.).Y.H p r N S a.B h , o 0 > 7 9 7 b.|.*X( q g f f d e { 9X|.m.0 t 7 8 6 < r > h h C a.V C I B.i.v.D.= _.,X      ",
"      >X'.- sXyX-Xn.^ L g g N l D M d D > < o 0 N.9 / ;Xe y k q g q q t *X{ , c.0 o 9 0 k f q l B M A D I x...i.V.E.& {.*X      ",
"      -X$X= iXsX^ 9 ) I J H g z N x N f.X 9 0 q a r j &X].h n q t n y ].].< 8 0 a a q l B u g N M A I ) ^ H L ^ C.^.= -X;X      ",
"      ].-X* +XiXl g q H K K P L m j a.h f.> q q q d >  .' e y r a k 7 ' z.8 a a 6 a q B N l z M K c.i.^ L < X p S.Q.- &X-X      ",
"      1X-XX.&XsXV h q a q 8 + H L E E h a N l a t > g q 0 a c q t h s a q 9 8 9 7 q u w j H ( B.x.J n 6 < X r 8 Q.E.: &X$X      ",
"      uX0XX.:X*XV j k h q o 9 8 y 9 z j.a l h w d 9 a d l p g l m < p l 0 0 8 q > 0 z k g.l h g a p O 9 o 8 8 h ^.^.- _.&X      ",
"      iXpX+.sX6Xh M n y 6 0 X X X 6 0 f.l h h a 0 j y q h 0 9 q q f 9 h a 9 w a a N h k k.l k h g h p 8 6 o q g D.^.= =X].      ",
"      qXyXo.4XY.{ i B a i g 8 8 7 9 X S h n q h g a d n J I W ) { W Y I a b r x d j u k f.g x e a a X o > 0 7 ( J.).o.`.;X      ",
"      &X/.X.!.L.R.^ P t p 0 6 8 i a k l S g j d 8 t y g T C l.S S h.C ! 8 y l g N h l f.k v k 8 0 8 > 6 X P ( S.T.+XO. X_.      ",
"      >X8X% eXt h L R ` [ ! R I L 3 @ q r N A h k l a r 7.k.S F F S j.z.e x a l h 5.V t g K I H 3 @ + P U R G m N 2X+.uX6X      ",
"      !.Q.& ^.q q h g u v v g 7 8 p q p a g l 5.x 0 l d Y M Z C D F C J y p k B 5.m y j B a 8 a > 8 0 8 7 q h N F dXo.dXdX      ",
"      Q.W.% E.g r d M f g a p d y 8 9 r d k k g k l p t z.g.S B S Z k.z.k m t k g k u l q p 8 9 8 a a 9 q N N m V qX+.uX6X      ",
"      C.Y.$ Z.n g y k h y h g g g l a a r k a a q e l a J S k.H F h.a.J 9 0 V k k h n h 8 8 h 0 p q q 8 , g m S V >X- 4XqX      ",
"      /.Q.$ !.< g y g a d g y 9 g s q I h t p h J a q n z.J D H N D P q.l e k U d j t g I 0 6 t r 8 8 a h g k N 8 >XX.[.$X      ",
"      E.W.$ Q.' a a q y g p a k 3 [ q h a a r P x r a > Y 6...Y I z. .J a h e h I 9 h 8 d d ) H q 0 8 9 d k N l Q %X= .X$X      ",
"      &X&X= |.F.^ q h a q H ) { g 9 h h k q ( t t a n a h 9 K | | K t h d d b t q ) j k q u 8 q ( / H e a l g ^ G.}.& ].+X      ",
"      -X+X= 1X+XoXS.A.Y.S.] u d q a a q q ' l 0 y e q a q g k g y n q y p y e y 8 M ] > q 7 q q d a / L.D.P.J.-X^.Q.% ~.^.      ",
"      #X;X- -X{.V.C.] e q q h w a j a a ) g k d g a y i q e h p p h q q i g q g k g h ( q 8 0 g < k k l h ] C.A.Y.Z.$ G.R.      ",
"      $X=X& &X*Xa l w a n g l > e k l ` e 9 a a ] k ` d z 8 k y y g w k d ` h ` q k < g ) q l 8 q x g x q h l g N.v.# c.N.      ",
"      -X_.= -X-Xw h q g 0 t k k t a ( h i k g R T.w.h 9 a k a g a y b a , l w.T.R y k t l ) q k q k g h l l a 8 D.A.$ A.F.      ",
"      &X*XX.@X&X[ t g g k y q q k ^ w h d 8 q L.r t y a a q e t y e a y k y 9 0 L.d 0 k g 8 ( a f h c a g x y / G.L.% C.V.      ",
"      :X+X- +X*XD.f t 8 g q a p [ l g p g q Y.a g l q h j g g a a j h y h 9 N y a D.q k 7 k l [ q q h z t g g m.Q.^.% ^.^.      ",
"      -X*Xo.{.=X'.[ y M a 9 j [ q 0 g t k a i h a 6 h a q a q q y a e f p g 8 g y y a h t g r q [ g q 9 M a [ 5X&X].* ;X_.      ",
"      4XqXX.6XqXqX,X/ h i t ` q k 9 s t q T.y a y y p q t l 8 g g 8 l t 0 p y y a y T.q t p 9 k q ( y , k / {.oX&XoX& ]. X      ",
"      iXdX+.iXsXsX~.5XA.Y.A.G.l a p k q J.{.g.g p h g j d ' d q 0 k ' d h g h p a g.*XJ.p h p a m H.A.R.G.@X&X%X&X-X& &X-X      ",
"      yXqXo.4XuX4X[.#X-X#X:XC.m.h y q J.&X%X-X/ b a 0 k 7 z u y y h k 7 k 8 a b / -X%X,XJ.q y j L.v.:X#X+X#X{.{.eX6X+.4X0X      ",
"      *X9X+.=X X-X].*X[.|.8.,.:._ 5X9X<X_.s.:.q g 8 u t h 0 y k k t 9 z t u 9 g q =.s._.<X9X5X_ >.,.} -X3X2XuX0XeXeXX.yXuX      ",
"      =XoXo.&X&X`.oX}.+X*X<.-.,.,.=.:.:.=.,.:.*.4 y a ` :Xj y a a q j :X` p y 4 2 >.,.:.=.,.=.,.=.2.<.;XeX6XqXpXaXpX#.aXsX      ",
"      ].].X.&X&X&X0X+XwX`.'...^ 4 ,.;.>.:.4 2 s.*X'.&X{.a g p y y a d p ].&X_.[.s.2 4 :.:.;.2.4 ^ | '.:XoX>X0XyX0X4X+.uXeX      ",
"      =X-X- &X*X-X].-X[..XB.>.:.;.:.,.:.>.2.=.,.{.7X=Xk g t a k l a t h n =X7X{.,.:.>.,.:.:.=.:.:.>.b.<X].-X,X-XqX4Xo.eXeX      ",
"      R.|.= !.^.^.Q.'.$X>X-.4 4 c.>.-.5 =Xc.2 :.oXw.g p t u a 0 0 a u t p y w.;X>.4 b.{.5 -.>.c.4 2 -.#X:X}.]._.&X&X- %X*X      ",
"      OX!.& ).^.I.OX|.E.}.5 } c.,X:.4 &XoX].:X .U k g q f h g 0 0 a h s q g h U  .:X&X.X*X5 :.*Xb.q.5 }.+X8X;X}.#X.X= %X[.      ",
"      9XXX& 9X&X,X!.9X0X.XqX/.%X&X>.5 *X=Xz.P y g 8 g g > k 9 k k 9 k > g g 8 j g I d.{.&X4 >.&X%X*XoX(.;X8X].>X+X/.: `.#X      ",
"      %X,X& S.$X;X$X_.+X-X&X1X+X&Xc.=.-Xr q , k y q z q h } g 9 9 g } h q k 0 y k < q 9 -X=.c.&X&XoX0X&X_.&X:X X0XJ.= .X=X      ",
"      .X%X=  .].&X+X3X2X]._.*X*X;X:X8X&Xz.U z q l p 0 ^ @Xg f q y f g =X^ 0 p l q z J z.*X8X>XoX].*X'.=X/.2X+X&X~.7.* =XXX      ",
"      =X{. .= 7.Z.*X#X_.`.-X`.7X&X-X/.'.+X_.z.I w y ! &Xd.a h q a h a d. X^ q w I z._.-X'.].-X&X0X+X&X@X=X|.*XJ.q.; | wX-X      ",
"      } 7X=X} * & ; 6.D.-X=X*X&X-X}.}.>X X1X X'. X1X[.7Xq q t k k 9 e q 7X[.2X X_.+X1X/.0X}.'.;X/.*X+X+XG.b.& & ; } Y.`.        ",
"          .X0X8XA.8.% - - = 8.D._.[.(.8X-X/.0X>X&X9X[.`.^ h q q q q h W `.].0X&X;XrX/.-X9X[.[.+XG.7.: - : & b.L._.              ",
"                -X&X=X@XA. .* & ; x.C.;X{._.&XXX-X`.XX].].^ a a g a ^ {.&XXX+X+X X&X_.].;XC.q.; = $ 7.S.+X&X                    ",
"                      =X+X<X#XD._ ; : & 8.F.;X&X&X;X.X&X].&X~ t q ~ &X_.,X-X;X&X&X-XD.w.; = * } G.&X1X                          ",
"                              ].{.:XY...: % % q.A.].@X>X+X>X.XR ^ (.>X&X&X+X{.m.q.; = - q.T.&X,X                                ",
"                                    U.[.+XR.q.= = & @.w.m.(.&X-X;X|.(.C.w.@.& = & _ H.0X&X                                      ",
"                                          &X_.=X_.A.} * = = i.Y.H.i.- = * } A.&X X>X                                            ",
"                                                #XqX-X XG.} % & & % } S.&X-X;X                                                  ",
"                                                       X1X%X.X@X@X(.$X;X                                                        ",
"                                                            v.oX1X                                                              ",
"                                                                                                                                "
};
